<svg width="25" height="25" viewBox="0 0 25 25" fill="none" xmlns="http://www.w3.org/2000/svg">
<path d="M4.01465 4.01465C8.62807 -0.598772 16.0622 -0.670603 20.7637 3.79883L20.9854 4.01465C25.5988 8.62807 25.6706 16.0622 21.2012 20.7637L20.9854 20.9854C16.3719 25.5988 8.93777 25.6706 4.23633 21.2012L4.01465 20.9854C-0.598772 16.3719 -0.670603 8.93777 3.79883 4.23633L4.01465 4.01465ZM12.5 1.77246C11.2672 1.77246 10.045 1.98506 8.88672 2.39941L8.39453 2.58887C7.2558 3.06056 6.2083 3.7249 5.29688 4.55078L4.91504 4.91504C4.04347 5.78661 3.32874 6.8003 2.80273 7.91211L2.58887 8.39453C2.04977 9.69603 1.77246 11.0913 1.77246 12.5C1.77246 13.7328 1.98506 14.955 2.39941 16.1133L2.58887 16.6055C3.06056 17.7442 3.7249 18.7917 4.55078 19.7031L4.91504 20.085C6.9268 22.0967 9.65493 23.2275 12.5 23.2275C15.3451 23.2275 18.0732 22.0967 20.085 20.085C22.0967 18.0732 23.2275 15.3451 23.2275 12.5C23.2275 9.83267 22.2341 7.26766 20.4521 5.2998L20.085 4.91504C19.2134 4.04347 18.1997 3.32874 17.0879 2.80273L16.6055 2.58887C15.304 2.04977 13.9087 1.77246 12.5 1.77246ZM13.0576 19.5527L11.126 14.1777L11.0469 13.9561L10.8252 13.876L5.44824 11.9434L17.8135 7.1875L13.0576 19.5527ZM14.5479 9.80762L10.3525 11.4209L9.09668 11.9033L10.3633 12.3584L12.04 12.96L12.6426 14.6387L13.0977 15.9043L13.5801 14.6484L15.1943 10.4531L15.5977 9.40332L14.5479 9.80762Z" fill="white" stroke="white"/>
</svg>
