<svg width="32" height="32" viewBox="0 0 32 32" fill="none" xmlns="http://www.w3.org/2000/svg">
<path d="M8.8 23.2L20 20L23.2 8.8L12 12L8.8 23.2ZM16 18.4C15.3333 18.4 14.7669 18.1669 14.3008 17.7008C13.8347 17.2347 13.6011 16.6677 13.6 16C13.5989 15.3323 13.8325 14.7659 14.3008 14.3008C14.7691 13.8357 15.3355 13.6021 16 13.6C16.6645 13.5979 17.2315 13.8315 17.7008 14.3008C18.1701 14.7701 18.4032 15.3365 18.4 16C18.3968 16.6635 18.1637 17.2304 17.7008 17.7008C17.2379 18.1712 16.6709 18.4043 16 18.4ZM16 32C13.7867 32 11.7067 31.5797 9.76 30.7392C7.81333 29.8987 6.12 28.7589 4.68 27.32C3.24 25.8811 2.10027 24.1877 1.2608 22.24C0.421335 20.2923 0.00106869 18.2123 2.02531e-06 16C-0.00106464 13.7877 0.419202 11.7077 1.2608 9.76C2.1024 7.81226 3.24213 6.11893 4.68 4.68C6.11787 3.24107 7.8112 2.10133 9.76 1.2608C11.7088 0.420267 13.7888 0 16 0C18.2112 0 20.2912 0.420267 22.24 1.2608C24.1888 2.10133 25.8821 3.24107 27.32 4.68C28.7579 6.11893 29.8981 7.81226 30.7408 9.76C31.5834 11.7077 32.0032 13.7877 32 16C31.9968 18.2123 31.5765 20.2923 30.7392 22.24C29.9018 24.1877 28.7621 25.8811 27.32 27.32C25.8779 28.7589 24.1845 29.8992 22.24 30.7408C20.2955 31.5824 18.2155 32.0021 16 32ZM16 28.8C19.5467 28.8 22.5669 27.5536 25.0608 25.0608C27.5547 22.568 28.8011 19.5477 28.8 16C28.7989 12.4523 27.5525 9.432 25.0608 6.9392C22.5691 4.4464 19.5488 3.2 16 3.2C12.4512 3.2 9.43093 4.44693 6.9392 6.9408C4.44747 9.43466 3.20107 12.4544 3.2 16C3.19893 19.5456 4.44587 22.5659 6.9408 25.0608C9.43573 27.5557 12.4555 28.8021 16 28.8Z" fill="white"/>
</svg>
