<svg width="25" height="26" viewBox="0 0 25 26" fill="none" xmlns="http://www.w3.org/2000/svg">
<path d="M1 13L12.5 1.5L24 13M3.875 10.8438V23.0625C3.875 23.4437 4.02645 23.8094 4.29603 24.079C4.56562 24.3486 4.93125 24.5 5.3125 24.5H9.625V20.1875C9.625 19.8063 9.77645 19.4406 10.046 19.171C10.3156 18.9014 10.6813 18.75 11.0625 18.75H13.9375C14.3187 18.75 14.6844 18.9014 14.954 19.171C15.2235 19.4406 15.375 19.8063 15.375 20.1875V24.5H19.6875C20.0687 24.5 20.4344 24.3486 20.704 24.079C20.9736 23.8094 21.125 23.4437 21.125 23.0625V10.8438" stroke="white" stroke-width="2" stroke-linecap="round" stroke-linejoin="round"/>
</svg>
