<svg width="45" height="45" viewBox="0 0 45 45" fill="none" xmlns="http://www.w3.org/2000/svg">
<path d="M34.9305 12.6788C40.1438 19.6898 38.6904 29.5732 31.6794 34.7865C24.6685 39.9998 14.785 38.5464 9.57168 31.5354C4.35837 24.5244 5.81181 14.641 12.8228 9.42766C19.8338 4.21436 29.7172 5.66779 34.9305 12.6788ZM11.0634 30.4262C15.6666 36.6167 24.3797 37.8981 30.5702 33.2948C36.7608 28.6916 38.0421 19.9785 33.4388 13.788C28.8356 7.59744 20.1225 6.31612 13.932 10.9194C7.74146 15.5226 6.46014 24.2357 11.0634 30.4262Z" fill="white"/>
<path d="M29.2762 16.2341L27.4211 28.8485L25.6005 28.5808L27.1878 17.787L16.394 16.1997L16.6618 14.3791L29.2762 16.2341Z" fill="white"/>
<path d="M16.1094 27.1836L15.0002 25.6919L27.6796 16.2636L28.7888 17.7553L16.1094 27.1836Z" fill="white"/>
</svg>
