<svg width="24" height="22" viewBox="0 0 24 22" fill="none" xmlns="http://www.w3.org/2000/svg">
<path d="M3.75 12V6.045M10.9 3.5H17.5M20.25 10V16M15.85 14.5L14.75 13.5M17.5 3C17.5 2.057 17.5 1.586 17.8223 1.293C18.1446 1 18.6627 1 19.7 1H20.8C21.8373 1 22.3554 1 22.6777 1.293C23 1.586 23 2.057 23 3V4C23 4.943 23 5.414 22.6777 5.707C22.3554 6 21.8373 6 20.8 6H19.7C18.6627 6 18.1446 6 17.8223 5.707C17.5 5.414 17.5 4.943 17.5 4V3ZM9.25 10.5C9.25 9.557 9.25 9.086 9.5723 8.793C9.8946 8.5 10.4127 8.5 11.45 8.5H12.55C13.5873 8.5 14.1054 8.5 14.4277 8.793C14.75 9.086 14.75 9.557 14.75 10.5V11.5C14.75 12.443 14.75 12.914 14.4277 13.207C14.1054 13.5 13.5873 13.5 12.55 13.5H11.45C10.4127 13.5 9.8946 13.5 9.5723 13.207C9.25 12.914 9.25 12.443 9.25 11.5V10.5ZM17.5 18C17.5 17.057 17.5 16.586 17.8223 16.293C18.1446 16 18.6627 16 19.7 16H20.8C21.8373 16 22.3554 16 22.6777 16.293C23 16.586 23 17.057 23 18V19C23 19.943 23 20.414 22.6777 20.707C22.3554 21 21.8373 21 20.8 21H19.7C18.6627 21 18.1446 21 17.8223 20.707C17.5 20.414 17.5 19.943 17.5 19V18ZM1 18C1 17.057 1 16.586 1.3223 16.293C1.6446 16 2.1627 16 3.2 16H4.3C5.3373 16 5.8554 16 6.1777 16.293C6.5 16.586 6.5 17.057 6.5 18V19C6.5 19.943 6.5 20.414 6.1777 20.707C5.8554 21 5.3373 21 4.3 21H3.2C2.1627 21 1.6446 21 1.3223 20.707C1 20.414 1 19.943 1 19V18ZM1 3C1 2.057 1 1.586 1.3223 1.293C1.6446 1 2.1627 1 3.2 1H4.3C5.3373 1 5.8554 1 6.1777 1.293C6.5 1.586 6.5 2.057 6.5 3V4C6.5 4.943 6.5 5.414 6.1777 5.707C5.8554 6 5.3373 6 4.3 6H3.2C2.1627 6 1.6446 6 1.3223 5.707C1 5.414 1 4.943 1 4V3Z" stroke="white" stroke-width="1.5" stroke-linecap="round" stroke-linejoin="round"/>
</svg>
