<svg width="26" height="26" viewBox="0 0 26 26" fill="none" xmlns="http://www.w3.org/2000/svg">
<path d="M20.9589 19.8983C20.666 19.6054 20.1912 19.6054 19.8983 19.8983C19.6054 20.1912 19.6054 20.666 19.8983 20.9589L20.9589 19.8983ZM24.4695 25.5303C24.7624 25.8232 25.2373 25.8232 25.5302 25.5303C25.8231 25.2374 25.8231 24.7625 25.5302 24.4696L24.4695 25.5303ZM20.4286 20.4286L19.8983 20.9589L24.4695 25.5303L24.9999 25L25.5302 24.4696L20.9589 19.8983L20.4286 20.4286ZM11.2857 21.5714V20.8214C6.01927 20.8214 1.75 16.5521 1.75 11.2857H1H0.25C0.25 17.3805 5.19084 22.3214 11.2857 22.3214V21.5714ZM21.5714 11.2857H20.8214C20.8214 16.5521 16.5521 20.8214 11.2857 20.8214V21.5714V22.3214C17.3805 22.3214 22.3214 17.3805 22.3214 11.2857H21.5714ZM11.2857 1V1.75C16.5521 1.75 20.8214 6.01927 20.8214 11.2857H21.5714H22.3214C22.3214 5.19084 17.3805 0.25 11.2857 0.25V1ZM11.2857 1V0.25C5.19084 0.25 0.25 5.19084 0.25 11.2857H1H1.75C1.75 6.01927 6.01927 1.75 11.2857 1.75V1Z" fill="white"/>
</svg>
